<svg xmlns="http://www.w3.org/2000/svg" viewBox="0 0 1200 760" role="img" aria-label="Archic hospitality reservations and floor management interface">
<defs><linearGradient id="bg" x1="0" y1="0" x2="1" y2="1"><stop stop-color="#111311"/><stop offset="1" stop-color="#0A0A0B"/></linearGradient><filter id="shadow"><feDropShadow dx="0" dy="22" stdDeviation="28" flood-color="#000" flood-opacity=".35"/></filter></defs>
<rect width="1200" height="760" fill="#0A0A0B"/><rect x="36" y="34" width="1128" height="692" rx="24" fill="url(#bg)" stroke="#45453f" filter="url(#shadow)"/>
<rect x="36" y="34" width="1128" height="56" rx="24" fill="#151613"/><path d="M36 90h1128" stroke="#30312c"/>
<g transform="translate(64 45) scale(.043)"><g transform="translate(26.5 50)"><g transform="translate(0,412) scale(0.1,-0.1)" fill="#FFFFFF"><path d="M1791 4103 c-8 -17 -337 -762 -549 -1248 -55 -126 -205 -468 -332 -760 -128 -291 -285 -651 -350 -800 -65 -148 -216 -493 -335 -765 -119 -272 -219 -503 -222 -513 l-5 -17 498 0 499 0 32 78 c18 42 61 147 96 232 36 85 117 283 182 440 65 157 141 341 170 410 29 69 89 213 133 320 270 652 656 1578 666 1598 l12 23 114 -268 c62 -147 145 -342 183 -433 129 -309 219 -525 272 -650 29 -69 83 -197 120 -285 37 -88 96 -227 130 -310 316 -749 453 -1079 468 -1123 l10 -32 504 0 503 0 0 10 c0 13 -134 316 -933 2110 -502 1128 -873 1964 -880 1983 l-6 17 -485 0 -485 0 -10 -17z"/></g><g transform="translate(0,412) scale(0.1,-0.1)" fill="#C9A56A"><path d="M2277 1734 c-8 -16 -173 -398 -367 -849 -193 -451 -358 -833 -366 -849 -8 -16 -14 -31 -14 -33 0 -1 338 -3 750 -3 445 0 750 4 750 9 0 9 -92 228 -497 1181 -85 201 -174 412 -198 469 l-43 104 -15 -29z"/></g></g></g><g font-family="Arial,Helvetica,sans-serif"><text x="98" y="69" fill="#f4f1e9" font-size="16" font-weight="700" letter-spacing="4">ARCHIC</text><text x="430" y="69" fill="#8f8d84" font-size="11" letter-spacing="3">CONTROL / HOSTELERÍA</text><circle cx="1125" cy="62" r="5" fill="#8cb68d"/><text x="1084" y="68" fill="#9e9b91" font-size="10" letter-spacing="2">LIVE</text></g>
<rect x="50" y="104" width="184" height="606" fill="#0e0f0e" stroke="#292a26"/>
<g font-family="Arial,Helvetica,sans-serif" font-size="13"><rect x="64" y="126" width="156" height="44" rx="7" fill="#24231e" stroke="#504837"/><circle cx="83" cy="148" r="6" fill="#C9A56A"/><text x="100" y="153" fill="#f2eee4">Reservas</text><text x="82" y="207" fill="#7d7b73">○</text><text x="100" y="207" fill="#aaa79f">Plano de sala</text><text x="82" y="255" fill="#7d7b73">○</text><text x="100" y="255" fill="#aaa79f">Clientes</text><text x="82" y="303" fill="#7d7b73">○</text><text x="100" y="303" fill="#aaa79f">Informes</text><text x="82" y="351" fill="#7d7b73">○</text><text x="100" y="351" fill="#aaa79f">Ajustes</text></g>
<circle cx="84" cy="670" r="15" fill="#2a2b27"/><g font-family="Arial,Helvetica,sans-serif"><text x="108" y="666" fill="#ece9df" font-size="11">Marta Ruiz</text><text x="108" y="683" fill="#77756f" font-size="9">Operaciones</text></g>
<g font-family="Arial,Helvetica,sans-serif"><text x="267" y="132" fill="#85837b" font-size="10" letter-spacing="2">SERVICIO</text><text x="267" y="158" fill="#f2efe7" font-size="21" font-weight="700">Hoy, 14 agosto</text><rect x="864" y="121" width="106" height="38" rx="7" fill="#171816" stroke="#3c3d38"/><text x="895" y="145" fill="#b7b4ab" font-size="11">Filtros</text><rect x="982" y="121" width="151" height="38" rx="7" fill="#C9A56A"/><text x="1010" y="145" fill="#0A0A0B" font-size="11" font-weight="700">+ Nueva reserva</text></g>
<rect x="258" y="184" width="450" height="506" rx="11" fill="#0d0f0e" stroke="#30312d"/><rect x="724" y="184" width="410" height="506" rx="11" fill="#0d0f0e" stroke="#30312d"/>
<g font-family="Arial,Helvetica,sans-serif"><text x="282" y="216" fill="#817f77" font-size="9" letter-spacing="2">RESERVAS</text><text x="282" y="241" fill="#f1eee6" font-size="17" font-weight="700">Próximas mesas</text><text x="674" y="239" fill="#C9A56A" font-size="18" font-weight="700">08</text><text x="282" y="282" fill="#C9A56A" font-size="10" font-weight="700">Todas</text><text x="335" y="282" fill="#77756f" font-size="10">Confirmadas</text><text x="420" y="282" fill="#77756f" font-size="10">En sala</text><path d="M282 294h405" stroke="#292a26"/>
<text x="282" y="330" fill="#d0cdc4" font-size="12">19:30</text><text x="345" y="326" fill="#f0ede5" font-size="12" font-weight="700">Laura Gómez</text><text x="345" y="344" fill="#77756f" font-size="9">4 pax · Terraza 12</text><circle cx="669" cy="333" r="5" fill="#88b58d"/>
<path d="M282 362h405" stroke="#20211e"/><text x="282" y="398" fill="#d0cdc4" font-size="12">20:00</text><text x="345" y="394" fill="#f0ede5" font-size="12" font-weight="700">Carlos Ruiz</text><text x="345" y="412" fill="#77756f" font-size="9">2 pax · Interior 04</text><circle cx="669" cy="401" r="5" fill="#C9A56A"/>
<path d="M282 430h405" stroke="#20211e"/><text x="282" y="466" fill="#d0cdc4" font-size="12">20:30</text><text x="345" y="462" fill="#f0ede5" font-size="12" font-weight="700">Marta López</text><text x="345" y="480" fill="#77756f" font-size="9">2 pax · Terraza 07</text><circle cx="669" cy="469" r="5" fill="#88b58d"/>
<path d="M282 498h405" stroke="#20211e"/><text x="282" y="534" fill="#d0cdc4" font-size="12">21:15</text><text x="345" y="530" fill="#f0ede5" font-size="12" font-weight="700">Private dining</text><text x="345" y="548" fill="#77756f" font-size="9">8 pax · Sala 02</text><circle cx="669" cy="537" r="5" fill="#a1a098"/>
<path d="M282 566h405" stroke="#20211e"/><rect x="282" y="595" width="405" height="64" rx="8" fill="#141512" stroke="#2d2e29"/><text x="302" y="620" fill="#77756f" font-size="9" letter-spacing="2">SIGUIENTE</text><text x="302" y="644" fill="#f0ede5" font-size="13" font-weight="700">Mesa 08 · 20:30</text><text x="627" y="642" fill="#C9A56A" font-size="10">CONFIRMADA</text>
<text x="748" y="216" fill="#817f77" font-size="9" letter-spacing="2">SALA</text><text x="748" y="241" fill="#f1eee6" font-size="17" font-weight="700">Plano en tiempo real</text><text x="1087" y="239" fill="#C9A56A" font-size="15" font-weight="700">82%</text><text x="748" y="282" fill="#C9A56A" font-size="10" font-weight="700">Interior</text><text x="805" y="282" fill="#77756f" font-size="10">Terraza</text><text x="852" y="282" fill="#77756f" font-size="10">VIP</text></g>
<rect x="748" y="305" width="362" height="284" rx="9" fill="#121310" stroke="#2c2d28"/><path d="M767 330h324M767 564h324" stroke="#20211e"/><rect x="774" y="342" width="54" height="190" rx="4" fill="#171816" stroke="#393a35"/><g font-family="Arial" font-size="10"><text x="790" y="439" fill="#77756f">BAR</text></g>
<g font-family="Arial" font-size="11" text-anchor="middle"><circle cx="878" cy="368" r="29" fill="#242521" stroke="#474842"/><text x="878" y="372" fill="#bcb9b0">01</text><rect x="960" y="342" width="54" height="48" rx="8" fill="#C9A56A"/><text x="987" y="371" fill="#18150f">02</text><circle cx="1049" cy="435" r="30" fill="#8cad8b"/><text x="1049" y="439" fill="#12150f">03</text><circle cx="888" cy="475" r="27" fill="#242521" stroke="#474842"/><text x="888" y="479" fill="#bcb9b0">04</text><rect x="952" y="492" width="59" height="49" rx="8" fill="#C9A56A"/><text x="982" y="522" fill="#18150f">05</text><circle cx="1060" cy="531" r="27" fill="#242521" stroke="#474842"/><text x="1060" y="535" fill="#bcb9b0">06</text></g>
<g font-family="Arial" font-size="9"><circle cx="760" cy="622" r="4" fill="#676862"/><text x="771" y="625" fill="#85837b">Libre</text><circle cx="826" cy="622" r="4" fill="#C9A56A"/><text x="837" y="625" fill="#85837b">Reservada</text><circle cx="918" cy="622" r="4" fill="#8cad8b"/><text x="929" y="625" fill="#85837b">En sala</text></g>
</svg>
